<?xml version="1.0" standalone="no"?>
<!DOCTYPE svg PUBLIC "-//W3C//DTD SVG 20010904//EN"
 "http://www.w3.org/TR/2001/REC-SVG-20010904/DTD/svg10.dtd">
<svg version="1.0" xmlns="http://www.w3.org/2000/svg"
 width="300.000000pt" height="300.000000pt" viewBox="0 0 300.000000 300.000000"
 preserveAspectRatio="xMidYMid meet">
<metadata>
Created by potrace 1.10, written by Peter Selinger 2001-2011
</metadata>
<g transform="translate(0.000000,300.000000) scale(0.100000,-0.100000)"
fill="#000000" stroke="none">
<path d="M1336 2294 c-166 -37 -298 -109 -411 -223 -249 -253 -302 -618 -137
-936 37 -70 66 -109 137 -180 155 -155 310 -224 521 -233 142 -5 249 12 353
59 l67 30 206 -56 c113 -30 214 -58 224 -62 14 -5 16 -3 10 13 -4 10 -32 111
-62 224 l-55 205 30 66 c72 160 82 394 24 561 -90 261 -300 455 -563 522 -95
24 -259 29 -344 10z m372 -42 c40 -11 80 -26 88 -33 9 -8 22 -14 28 -14 10 0
119 -71 154 -100 68 -56 182 -197 182 -225 0 -4 4 -10 8 -12 12 -4 59 -131 77
-208 27 -118 15 -280 -31 -405 -50 -138 -49 -121 -15 -251 17 -65 39 -150 50
-189 10 -38 17 -73 15 -76 -2 -4 -46 4 -96 18 -262 69 -284 73 -318 67 -19 -3
-39 -9 -45 -14 -10 -8 -93 -38 -130 -47 -85 -20 -186 -25 -275 -14 -81 10
-201 42 -235 63 -5 3 -37 21 -69 38 -87 48 -190 144 -242 226 -10 16 -21 31
-24 34 -13 13 -70 141 -87 195 -25 85 -25 312 0 409 22 80 37 116 49 116 5 0
8 6 7 13 -4 21 20 69 31 62 6 -4 9 -3 8 2 -4 15 30 67 81 126 28 32 51 55 51
51 0 -4 12 6 27 20 30 30 139 97 206 126 120 53 356 63 505 22z"/>
<path d="M1383 2175 c-92 -16 -175 -44 -189 -63 -6 -8 -16 -12 -22 -8 -7 4
-12 3 -12 -1 0 -5 -17 -17 -37 -28 -53 -28 -164 -140 -198 -200 -16 -27 -34
-57 -40 -65 -7 -8 -24 -53 -38 -100 -31 -103 -37 -259 -12 -355 16 -63 74
-189 109 -239 51 -73 196 -196 230 -196 6 0 17 -5 24 -12 24 -24 158 -59 249
-65 114 -7 302 25 286 50 -3 5 3 6 17 2 15 -5 20 -4 16 4 -4 6 -1 11 6 11 7 0
26 7 43 16 31 16 78 13 145 -11 19 -7 58 -15 85 -19 81 -12 41 9 -83 43 l-113
31 -57 -29 c-129 -65 -241 -86 -375 -71 -532 61 -765 704 -394 1088 289 299
774 257 1000 -86 136 -207 149 -440 36 -664 l-29 -57 31 -113 c38 -136 51
-164 45 -90 -3 29 -8 57 -11 62 -3 5 -12 39 -20 75 -11 56 -11 71 0 98 8 18
15 28 15 22 0 -5 14 30 31 79 40 119 49 250 25 359 -10 42 -17 79 -17 82 0 3
-16 37 -36 77 -21 40 -36 77 -35 81 1 5 -2 6 -7 3 -5 -4 -12 3 -16 14 -6 17
-79 96 -128 136 -33 28 -118 84 -126 84 -5 0 -31 9 -58 21 -96 41 -226 54
-340 34z"/>
<path d="M1135 1611 c-84 -35 -83 -162 2 -198 43 -17 71 -12 111 22 91 77 -2
221 -113 176z m103 -52 c31 -38 28 -71 -10 -103 -17 -14 -38 -26 -44 -26 -26
0 -64 24 -64 39 0 14 -2 14 -11 1 -7 -11 -9 -3 -7 30 4 61 31 92 78 88 23 -2
43 -12 58 -29z"/>
<path d="M1433 1600 c-54 -33 -68 -83 -37 -141 18 -36 74 -63 114 -54 33 7 76
51 85 86 9 38 -18 95 -54 113 -40 21 -69 20 -108 -4z m101 -26 c44 -44 42 -91
-6 -125 -73 -53 -156 47 -96 116 25 29 78 34 102 9z"/>
<path d="M1754 1610 c-32 -13 -64 -59 -64 -92 0 -100 117 -151 183 -79 33 35
41 73 23 115 -22 54 -86 79 -142 56z m93 -35 c24 -17 38 -64 28 -95 -9 -28
-59 -52 -92 -44 -42 11 -63 35 -63 73 0 67 72 105 127 66z"/>
</g>
</svg>
